<svg width="178" height="31" viewBox="0 0 178 31" fill="none" xmlns="http://www.w3.org/2000/svg">
<path d="M27.125 0H3.875C1.7349 0 0 1.7349 0 3.875V27.125C0 29.2651 1.7349 31 3.875 31H27.125C29.2651 31 31 29.2651 31 27.125V3.875C31 1.7349 29.2651 0 27.125 0Z" fill="#0E0E10"/>
<path d="M15.6838 15.0354L22.8913 10.2498L19.8979 5.09602L8.10822 12.5554L8.13728 12.6038C8.13728 12.6038 8.1179 12.6038 8.10822 12.6038V18.5616C12.0801 18.5616 15.306 21.8651 15.306 25.9145H21.2638C21.2638 21.4291 19.0551 17.4573 15.6838 15.0451V15.0354Z" fill="#CEFF3E"/>
<path d="M170.654 23.3242C169.89 23.3242 169.201 23.1881 168.589 22.9159C167.982 22.6384 167.5 22.2301 167.144 21.691C166.794 21.1518 166.618 20.487 166.618 19.6966C166.618 19.0161 166.744 18.4534 166.995 18.0084C167.246 17.5635 167.589 17.2075 168.024 16.9406C168.458 16.6736 168.948 16.4721 169.492 16.336C170.042 16.1946 170.61 16.0925 171.196 16.0297C171.903 15.9564 172.476 15.891 172.915 15.8334C173.355 15.7706 173.674 15.6764 173.873 15.5508C174.078 15.4199 174.18 15.2184 174.18 14.9462V14.899C174.18 14.3075 174.004 13.8495 173.654 13.525C173.303 13.2004 172.798 13.0381 172.138 13.0381C171.442 13.0381 170.89 13.1899 170.481 13.4935C170.078 13.7972 169.806 14.1557 169.665 14.5693L167.011 14.1924C167.22 13.4595 167.566 12.8471 168.047 12.355C168.529 11.8577 169.118 11.4861 169.814 11.24C170.51 10.9888 171.28 10.8631 172.122 10.8631C172.703 10.8631 173.282 10.9312 173.858 11.0673C174.433 11.2034 174.96 11.4285 175.436 11.7426C175.912 12.0514 176.294 12.4728 176.582 13.0067C176.875 13.5407 177.022 14.2081 177.022 15.009V23.0808H174.29V21.424H174.195C174.023 21.759 173.779 22.0731 173.465 22.3662C173.156 22.6542 172.766 22.8871 172.295 23.0651C171.829 23.2378 171.282 23.3242 170.654 23.3242ZM171.392 21.2356C171.963 21.2356 172.457 21.123 172.876 20.8979C173.295 20.6676 173.617 20.364 173.842 19.9871C174.072 19.6102 174.187 19.1993 174.187 18.7544V17.3332C174.098 17.4064 173.947 17.4745 173.732 17.5373C173.523 17.6001 173.287 17.6551 173.025 17.7022C172.764 17.7493 172.505 17.7912 172.248 17.8278C171.992 17.8645 171.769 17.8959 171.581 17.922C171.157 17.9796 170.777 18.0738 170.442 18.2047C170.107 18.3356 169.843 18.5188 169.649 18.7544C169.455 18.9847 169.359 19.283 169.359 19.6495C169.359 20.1729 169.55 20.5682 169.932 20.8351C170.314 21.1021 170.801 21.2356 171.392 21.2356Z" fill="#0E0E10"/>
<path d="M157.555 19.2962L157.547 15.8649H158.002L162.336 11.0202H165.658L160.326 16.9563H159.737L157.555 19.2962ZM154.963 23.0808V7H157.806V23.0808H154.963ZM162.533 23.0808L158.607 17.5923L160.523 15.59L165.933 23.0808H162.533Z" fill="#0E0E10"/>
<path d="M144.359 27.6035C143.971 27.6035 143.613 27.5721 143.283 27.5093C142.959 27.4517 142.699 27.3836 142.506 27.3051L143.165 25.0909C143.579 25.2113 143.948 25.2689 144.272 25.2636C144.597 25.2584 144.882 25.1563 145.128 24.9574C145.38 24.7637 145.592 24.4392 145.764 23.9838L146.008 23.332L141.634 11.0202H144.649L147.429 20.1284H147.555L150.342 11.0202H153.365L148.536 24.5412C148.311 25.1799 148.013 25.7269 147.641 26.1823C147.269 26.6429 146.814 26.9937 146.275 27.2345C145.741 27.4805 145.102 27.6035 144.359 27.6035Z" fill="#0E0E10"/>
<path d="M133.509 23.2928C132.561 23.2928 131.713 23.0494 130.965 22.5626C130.216 22.0757 129.625 21.3691 129.19 20.4425C128.756 19.516 128.539 18.3906 128.539 17.0662C128.539 15.7261 128.758 14.5955 129.198 13.6742C129.643 12.7476 130.242 12.0488 130.996 11.5777C131.75 11.1013 132.59 10.8632 133.517 10.8632C134.223 10.8632 134.804 10.9836 135.26 11.2243C135.715 11.4599 136.076 11.7452 136.343 12.0802C136.61 12.41 136.817 12.7215 136.964 13.0146H137.081V7H139.932V23.0808H137.136V21.1806H136.964C136.817 21.4738 136.605 21.7852 136.328 22.115C136.05 22.4395 135.684 22.717 135.228 22.9473C134.773 23.1776 134.2 23.2928 133.509 23.2928ZM134.302 20.9608C134.904 20.9608 135.417 20.7985 135.841 20.4739C136.265 20.1442 136.587 19.6861 136.807 19.0999C137.027 18.5136 137.136 17.8305 137.136 17.0505C137.136 16.2705 137.027 15.5926 136.807 15.0168C136.592 14.441 136.273 13.9935 135.849 13.6742C135.43 13.3548 134.914 13.1952 134.302 13.1952C133.669 13.1952 133.14 13.3601 132.716 13.6899C132.292 14.0196 131.972 14.4751 131.758 15.0561C131.543 15.6371 131.436 16.3019 131.436 17.0505C131.436 17.8043 131.543 18.4769 131.758 19.0684C131.978 19.6547 132.3 20.118 132.724 20.4582C133.153 20.7933 133.679 20.9608 134.302 20.9608Z" fill="#0E0E10"/>
<path d="M121.634 23.3163C120.425 23.3163 119.381 23.0651 118.501 22.5625C117.627 22.0548 116.954 21.3376 116.483 20.4111C116.012 19.4793 115.777 18.3827 115.777 17.1211C115.777 15.8805 116.012 14.7917 116.483 13.8547C116.96 12.9125 117.624 12.1797 118.478 11.6562C119.331 11.1275 120.333 10.8631 121.485 10.8631C122.228 10.8631 122.93 10.9835 123.589 11.2243C124.254 11.4599 124.84 11.8263 125.348 12.3236C125.861 12.8209 126.264 13.4543 126.557 14.2238C126.851 14.988 126.997 15.8989 126.997 16.9563V17.8278H117.112V15.9119H124.272C124.267 15.3675 124.149 14.8833 123.919 14.4593C123.689 14.0301 123.367 13.6925 122.953 13.4464C122.545 13.2004 122.069 13.0774 121.524 13.0774C120.943 13.0774 120.433 13.2187 119.993 13.5014C119.553 13.7788 119.211 14.1453 118.965 14.6007C118.724 15.0508 118.601 15.5455 118.596 16.0847V17.7572C118.596 18.4586 118.724 19.0606 118.98 19.5631C119.237 20.0604 119.595 20.4425 120.056 20.7095C120.517 20.9712 121.056 21.1021 121.673 21.1021C122.087 21.1021 122.461 21.0445 122.796 20.9293C123.131 20.8089 123.422 20.6336 123.668 20.4033C123.914 20.1729 124.1 19.8876 124.225 19.5474L126.879 19.8458C126.712 20.5472 126.393 21.1597 125.921 21.6831C125.456 22.2014 124.859 22.6044 124.131 22.8923C123.404 23.175 122.571 23.3163 121.634 23.3163Z" fill="#0E0E10"/>
<path d="M96.7509 7H100.316L105.09 18.6523H105.278L110.052 7H113.617V23.0808H110.822V12.0331H110.672L106.228 23.0337H104.14L99.6953 12.0095H99.5461V23.0808H96.7509V7Z" fill="#0E0E10"/>
<path d="M78.0759 23.0808V7H80.9183V13.0146H81.0361C81.1827 12.7215 81.3895 12.41 81.6564 12.0802C81.9234 11.7452 82.2846 11.4599 82.74 11.2243C83.1954 10.9836 83.7764 10.8632 84.4831 10.8632C85.4149 10.8632 86.255 11.1013 87.0036 11.5777C87.7574 12.0488 88.3541 12.7476 88.7938 13.6742C89.2388 14.5955 89.4613 15.7261 89.4613 17.0662C89.4613 18.3906 89.244 19.516 88.8095 20.4425C88.3751 21.3691 87.7836 22.0757 87.035 22.5626C86.2864 23.0494 85.4384 23.2928 84.491 23.2928C83.8 23.2928 83.2268 23.1776 82.7714 22.9473C82.316 22.717 81.9496 22.4395 81.6721 22.115C81.3999 21.7852 81.1879 21.4738 81.0361 21.1806H80.8712V23.0808H78.0759ZM80.8634 17.0505C80.8634 17.8305 80.9733 18.5136 81.1932 19.0999C81.4182 19.6861 81.7402 20.1442 82.1589 20.4739C82.5829 20.7985 83.0959 20.9608 83.6979 20.9608C84.3261 20.9608 84.8522 20.7933 85.2762 20.4582C85.7002 20.118 86.0195 19.6547 86.2341 19.0684C86.454 18.4769 86.5639 17.8043 86.5639 17.0505C86.5639 16.3019 86.4566 15.6371 86.242 15.0561C86.0273 14.4751 85.708 14.0196 85.284 13.6899C84.86 13.3601 84.3313 13.1952 83.6979 13.1952C83.0907 13.1952 82.5751 13.3548 82.1511 13.6742C81.7271 13.9935 81.4052 14.441 81.1853 15.0168C80.9707 15.5926 80.8634 16.2705 80.8634 17.0505Z" fill="#0E0E10"/>
<path d="M72.5535 18.0084V11.0202H75.3959V23.0808H72.6399V20.9372H72.5143C72.2421 21.6125 71.7945 22.1647 71.1716 22.594C70.5539 23.0232 69.7922 23.2378 68.8867 23.2378C68.0962 23.2378 67.3974 23.0625 66.7902 22.7117C66.1882 22.3558 65.7171 21.8402 65.3768 21.1649C65.0366 20.4844 64.8665 19.6626 64.8665 18.6994V11.0202H67.7089V18.2597C67.7089 19.0239 67.9182 19.6312 68.337 20.0813C68.7558 20.5315 69.3054 20.7566 69.9859 20.7566C70.4047 20.7566 70.8104 20.6545 71.203 20.4504C71.5956 20.2462 71.9175 19.9426 72.1688 19.5396C72.4253 19.1313 72.5535 18.6209 72.5535 18.0084Z" fill="#0E0E10"/>
<path d="M62.3121 7V23.0808H59.4697V7H62.3121Z" fill="#0E0E10"/>
<path d="M45 23.0808V7H47.9131V14.3887H48.1094L54.3831 7H57.94L51.7213 14.2159L57.995 23.0808H54.493L49.6955 16.1868L47.9131 18.2911V23.0808H45Z" fill="#0E0E10"/>
</svg>
