<svg width="16" height="16" viewBox="0 0 16 16" fill="none" xmlns="http://www.w3.org/2000/svg">
<path d="M1.36646 1.3667H2.69979L4.47312 9.6467C4.53817 9.94994 4.7069 10.221 4.95026 10.4133C5.19362 10.6055 5.49639 10.7069 5.80646 10.7H12.3265C12.6299 10.6995 12.9241 10.5956 13.1605 10.4053C13.3968 10.215 13.5612 9.94972 13.6265 9.65337L14.7265 4.70003H3.41312M5.99992 14C5.99992 14.3682 5.70144 14.6667 5.33325 14.6667C4.96506 14.6667 4.66659 14.3682 4.66659 14C4.66659 13.6318 4.96506 13.3333 5.33325 13.3333C5.70144 13.3333 5.99992 13.6318 5.99992 14ZM13.3333 14C13.3333 14.3682 13.0348 14.6667 12.6666 14.6667C12.2984 14.6667 11.9999 14.3682 11.9999 14C11.9999 13.6318 12.2984 13.3333 12.6666 13.3333C13.0348 13.3333 13.3333 13.6318 13.3333 14Z" stroke="#FAFAFA" stroke-width="1.33" stroke-linecap="round" stroke-linejoin="round"/>
</svg>
