<svg width="16" height="16" viewBox="0 0 16 16" fill="none" xmlns="http://www.w3.org/2000/svg">
<path d="M5.99479 6.0026H6.00146M9.99479 6.0026L5.99479 10.0026M9.99479 10.0026H10.0015M1.32812 6.0026C1.85856 6.0026 2.36727 6.21332 2.74234 6.58839C3.11741 6.96346 3.32813 7.47217 3.32813 8.0026C3.32813 8.53304 3.11741 9.04175 2.74234 9.41682C2.36727 9.79189 1.85856 10.0026 1.32812 10.0026L1.32812 11.3359C1.32812 11.6896 1.4686 12.0287 1.71865 12.2787C1.9687 12.5288 2.30784 12.6693 2.66146 12.6693L13.3281 12.6693C13.6817 12.6693 14.0209 12.5288 14.2709 12.2787C14.521 12.0287 14.6615 11.6896 14.6615 11.3359V10.0026C14.131 10.0026 13.6223 9.79189 13.2472 9.41682C12.8722 9.04175 12.6615 8.53304 12.6615 8.0026C12.6615 7.47217 12.8722 6.96346 13.2472 6.58839C13.6223 6.21332 14.131 6.0026 14.6615 6.0026V4.66927C14.6615 4.31565 14.521 3.97651 14.2709 3.72646C14.0209 3.47641 13.6817 3.33594 13.3281 3.33594L2.66146 3.33594C2.30784 3.33594 1.9687 3.47641 1.71865 3.72646C1.4686 3.97651 1.32813 4.31565 1.32812 4.66927L1.32812 6.0026Z" stroke="#18181B" stroke-width="1.33" stroke-linecap="round" stroke-linejoin="round"/>
</svg>
